<?xml version="1.0" encoding="utf-8"?>
<!-- Generator: Adobe Illustrator 17.1.0, SVG Export Plug-In . SVG Version: 6.00 Build 0)  -->
<!DOCTYPE svg PUBLIC "-//W3C//DTD SVG 1.1//EN" "http://www.w3.org/Graphics/SVG/1.1/DTD/svg11.dtd">
<svg version="1.1" id="Layer_1" xmlns="http://www.w3.org/2000/svg" xmlns:xlink="http://www.w3.org/1999/xlink" x="0px" y="0px"
	 viewBox="0 0 223 66" enable-background="new 0 0 223 66" xml:space="preserve">
<g>
	<path fill="#30660F" d="M56,41.1c-1.2,0-2,0-1-1.9c0.1-0.2,0.2-0.5,0.4-0.9L59,30h12c1.2,0,1.6,0.9,1.6,1.7c0,0.2-0.1,0.5-0.2,0.8
		L72,33.7h5l0.6-1.8c0.1-0.3,0.2-0.6,0.2-0.9c0-0.9,0.3-1.5-0.7-2c-0.8-0.4-2-0.9-3-0.9H55L50.2,39c-0.1,0.3-0.2,0.6-0.2,0.9
		c0,0.9-0.1,1.7,1,2.2c0.8,0.4,2,0.9,3,0.9h18l1-1.9H56L56,41.1z M96,28.1H82L75,43h5l6-13h7c1.2,0,2,0.9,2,1.7
		c0,0.3-0.1,0.5-0.2,0.8L94.1,34h5l1-2c0.1-0.3,0.2-0.6,0.2-0.9c0-0.9-0.5-1.6-1.6-2.1C97.8,28.6,97,28.1,96,28.1L96,28.1z
		 M122,28.1h-18L98.6,39c-0.1,0.2-0.2,0.5-0.2,0.9c0,0.9,0.5,1.7,1.5,2.2c0.8,0.4,2,0.9,3,0.9h18l5-11c0.1-0.3,0.2-0.6,0.2-0.9
		c0-0.9-0.5-1.6-1.5-2.1C123.8,28.6,123,28.1,122,28.1L122,28.1z M117,41.1h-12c-1.2,0-1.4-1.1-1.4-1.9c0-0.3,0.1-0.5,0.2-0.8
		L108,30h11c1.1,0,2,0.9,2,1.7c0,0.2-0.1,0.5-0.2,0.8L117,41.1L117,41.1z M129,43h26l7-15h-5l-6,13.1h-8l6-13.1h-5l-6,13.1h-6
		c-1.2,0-1.6-1.1-1.6-1.9c0-0.3,0.1-0.5,0.2-0.8L136,28h-5l-5.7,11c-0.1,0.3-0.2,0.6-0.2,0.9c0,0.9-0.2,1.7,0.9,2.2
		C126.8,42.5,127.9,43,129,43L129,43z M191.1,23l-5.6,1.1L183,28h-13c-2,0-2,0.7-3.4,1.2c-1.7,0.7-2.8,1.6-3.5,2.7l-4.1,8.6
		c-0.1,1.4,0.6,2.4,3,2.4h20L191.1,23L191.1,23z M166,41.1c-1.1-0.1-1.7-1.4-1.6-2l3.1-6.6c0.3-0.6,0.8-1.1,1.5-1.5
		c0.7-0.4,1.3-1,2-1h12l-5,11.1H166L166,41.1z M190,43l7-15l-6,1l-6,14H190L190,43z M200,23l-6,1l-2,3l6-1L200,23z M218,28.1L200,28
		l-7,15h5l6-13h11c1.2,0,1.8,0.9,1.8,1.7c0,0.3-0.1,0.5-0.2,0.8l-4.8,10.1h5l5-10.6c0.1-0.2,0.2-0.5,0.2-0.9c0-0.9-0.5-1.6-1.6-2.1
		C219.6,28.6,219,28.1,218,28.1L218,28.1z"/>
	<path fill-rule="evenodd" clip-rule="evenodd" fill="#30660F" d="M50.9,19.2c0,0-33.4-3.8-36.8,11.7C9.2,53.1,30.3,48,30.3,48
		S1.7,60.7,4.8,31.1C6.9,11.1,44.5,15.9,50.9,19.2L50.9,19.2z"/>
	<path fill-rule="evenodd" clip-rule="evenodd" fill="#30660F" d="M47.9,27.2c0,0-15.1-0.2-16,6.7c-1.3,9.9,7.9,6.7,7.9,6.7
		s-12.3,6.8-12.1-6.2C27.9,25.6,45,26,47.9,27.2L47.9,27.2z"/>
	<path fill-rule="evenodd" clip-rule="evenodd" fill="#30660F" d="M48.2,23.1c0,0-22.9-0.3-24.3,10.1c-2,15,12,10.2,12,10.2
		S17.3,53.7,17.6,34C17.9,20.7,43.7,21.4,48.2,23.1L48.2,23.1z"/>
	<path fill-rule="evenodd" clip-rule="evenodd" fill="#B8CC1C" d="M39.7,40.6c0,0-12.1,6.6-13.1-4.7c1.5,0.2,2.9,0.4,4.2,0.4
		C31.5,44.6,39.7,40.6,39.7,40.6L39.7,40.6z"/>
	<path fill-rule="evenodd" clip-rule="evenodd" fill="#B8CC1C" d="M31.2,32.5c-0.1,0.4-0.3,1.4-0.4,1.8c-2.6-0.3-1.5,0-4.3-0.5
		c0-0.2,0.1-1.1,0.1-1.3c1.5-8,18.5-6.5,21.2-5.3C47.9,27.2,32.9,25.9,31.2,32.5L31.2,32.5z"/>
	<path fill-rule="evenodd" clip-rule="evenodd" fill="#B8CC1C" d="M35.8,43.5c0,0-18.3,10.1-19.9-7.2c2.3,0.4,4.3,0.6,6.4,0.6
		C23.3,49.5,35.8,43.5,35.8,43.5L35.8,43.5z"/>
	<path fill-rule="evenodd" clip-rule="evenodd" fill="#B8CC1C" d="M22.9,31.2c-0.2,0.7-0.5,2.2-0.6,2.8c-3.9-0.5-3.7-0.3-6.5-0.8
		c0-0.3,0.1-1.7,0.2-2c2.2-12,28-9.8,32.2-8.1C48.2,23.1,25.5,21.2,22.9,31.2L22.9,31.2z"/>
	<path fill-rule="evenodd" clip-rule="evenodd" fill="#B8CC1C" d="M30,48c0,0-28,12.5-28-13.7c3.3,0.9,6.3,1.6,9.2,1.9
		C11,55.3,30,48,30,48L30,48z"/>
	<path fill-rule="evenodd" clip-rule="evenodd" fill="#B8CC1C" d="M12.9,27.6c-0.3,1-1,3.2-1.2,4.1c-5.6-1.3-4.2-0.7-9.3-2.1
		c0.1-0.4,0.4-2.5,0.5-3c4.9-17.8,42.1-10.6,48-7.4C50.9,19.2,17.9,12.9,12.9,27.6L12.9,27.6z"/>
</g>
</svg>
